<svg version="1" xmlns="http://www.w3.org/2000/svg" width="15748" height="15748" viewBox="0 0 11811.000000 11811.000000"><path d="M0 5905.5V11811h11811V0H0v5905.5zM2005.5 2545c95.2.5 267.3 1.1 382.5 1.4 115.2.4 257.9.8 317 1.1 59.1.3 247.7 1 419 1.5s371.1 1.2 444 1.5c72.9.3 266.4 1 430 1.5 563.8 1.8 910.2 3.1 1147.5 4.2 158.2.7 1041.1 1.3 2634.2 1.5l2396.3.4V3804H7009v1333h3167l-.3 1768.2c-.2 1342.2-.6 1771.6-1.5 1781.8-4.9 56.1-11.7 99.3-22.7 143.2-70 279.5-278.3 497.5-566 592.1-95.3 31.4-193.3 48.7-302.5 53.7-15 .6-620.8 1-1819.7 1H5666v-5H1540V2544h146.3c80.4 0 224.1.4 319.2 1z"/><path d="M4285.3 3808.7l-1380.3.3v1336l1380.5.2 1380.5.3v-668.8c0-367.8-.1-668.6-.2-668.5-.2.2-621.4.4-1380.5.5zM4285.3 5720.7l-1380.3.3v144h2761v-72.5c0-39.9-.1-72.4-.2-72.3-.2.2-621.4.4-1380.5.5zM5666 6481c0 .7-175.7 1-525.3 1-289 0-910.2.3-1380.5.7l-855.2.6V8235h1380.5c1379.8 0 1380.5 0 1380.5-2s.7-2 1590.5-2H8847l-.2-875.3-.3-875.2-1590.2-.3c-1060-.1-1590.3.1-1590.3.8z"/></svg>